<mxfile host="65bd71144e" scale="1" border="0" disableSvgWarning="true">
    <diagram id="vlvWP8S1lTVV3LTyoqqZ" name="第 1 页">
        <mxGraphModel dx="700" dy="444" grid="1" gridSize="14" guides="1" tooltips="1" connect="1" arrows="1" fold="1" page="1" pageScale="1" pageWidth="1200" pageHeight="1920" math="0" shadow="0">
            <root>
                <mxCell id="0"/>
                <mxCell id="1" parent="0"/>
                <mxCell id="2" value="被取错快递用户" style="shape=mxgraph.signs.people.man_1;html=1;pointerEvents=1;fillColor=#000000;strokeColor=none;verticalLabelPosition=bottom;verticalAlign=top;align=center;sketch=0;" parent="1" vertex="1">
                    <mxGeometry x="320" y="740" width="37" height="98" as="geometry"/>
                </mxCell>
                <mxCell id="3" value="&lt;font color=&quot;#000000&quot;&gt;快递&lt;/font&gt;" style="sketch=0;pointerEvents=1;shadow=0;dashed=0;html=1;strokeColor=#3A5431;fillColor=#6d8764;labelPosition=center;verticalLabelPosition=bottom;verticalAlign=top;outlineConnect=0;align=center;shape=mxgraph.office.concepts.node_generic;fontColor=#ffffff;" parent="1" vertex="1">
                    <mxGeometry x="480" y="880" width="46" height="52" as="geometry"/>
                </mxCell>
                <mxCell id="4" value="快递驿站" style="sketch=0;pointerEvents=1;shadow=0;dashed=0;html=1;strokeColor=none;labelPosition=center;verticalLabelPosition=bottom;verticalAlign=top;outlineConnect=0;align=center;shape=mxgraph.office.concepts.home;fillColor=#2072B8;" parent="1" vertex="1">
                    <mxGeometry x="640" y="880" width="51" height="50" as="geometry"/>
                </mxCell>
                <mxCell id="5" value="取错快递用户" style="shape=mxgraph.signs.people.man_2;html=1;pointerEvents=1;fillColor=#000000;strokeColor=none;verticalLabelPosition=bottom;verticalAlign=top;align=center;sketch=0;" parent="1" vertex="1">
                    <mxGeometry x="321" y="990" width="36" height="99" as="geometry"/>
                </mxCell>
                <mxCell id="7" value="" style="endArrow=classic;html=1;" parent="1" source="4" target="3" edge="1">
                    <mxGeometry width="50" height="50" relative="1" as="geometry">
                        <mxPoint x="580" y="970" as="sourcePoint"/>
                        <mxPoint x="630" y="920" as="targetPoint"/>
                    </mxGeometry>
                </mxCell>
                <mxCell id="8" value="出库" style="edgeLabel;html=1;align=center;verticalAlign=middle;resizable=0;points=[];" parent="7" vertex="1" connectable="0">
                    <mxGeometry x="0.5599" y="1" relative="1" as="geometry">
                        <mxPoint x="29" y="-2" as="offset"/>
                    </mxGeometry>
                </mxCell>
                <mxCell id="9" value="" style="endArrow=classic;html=1;entryX=0.93;entryY=0.195;entryDx=0;entryDy=0;entryPerimeter=0;" parent="1" source="3" target="5" edge="1">
                    <mxGeometry width="50" height="50" relative="1" as="geometry">
                        <mxPoint x="580" y="970" as="sourcePoint"/>
                        <mxPoint x="630" y="920" as="targetPoint"/>
                    </mxGeometry>
                </mxCell>
                <mxCell id="10" value="快递被取错" style="edgeLabel;html=1;align=center;verticalAlign=middle;resizable=0;points=[];" parent="9" vertex="1" connectable="0">
                    <mxGeometry x="0.192" relative="1" as="geometry">
                        <mxPoint x="1" as="offset"/>
                    </mxGeometry>
                </mxCell>
                <mxCell id="11" value="" style="endArrow=classic;html=1;entryX=1;entryY=0.5;entryDx=0;entryDy=0;entryPerimeter=0;" parent="1" source="3" target="2" edge="1">
                    <mxGeometry width="50" height="50" relative="1" as="geometry">
                        <mxPoint x="580" y="970" as="sourcePoint"/>
                        <mxPoint x="630" y="920" as="targetPoint"/>
                    </mxGeometry>
                </mxCell>
                <mxCell id="12" value="快递所有者" style="edgeLabel;html=1;align=center;verticalAlign=middle;resizable=0;points=[];" parent="11" vertex="1" connectable="0">
                    <mxGeometry x="0.2655" y="-1" relative="1" as="geometry">
                        <mxPoint as="offset"/>
                    </mxGeometry>
                </mxCell>
                <mxCell id="13" value="" style="endArrow=classic;html=1;entryX=0.76;entryY=1;entryDx=0;entryDy=0;entryPerimeter=0;" parent="1" source="4" target="5" edge="1">
                    <mxGeometry relative="1" as="geometry">
                        <mxPoint x="550" y="950" as="sourcePoint"/>
                        <mxPoint x="590" y="990" as="targetPoint"/>
                    </mxGeometry>
                </mxCell>
                <mxCell id="14" value="" style="shape=message;html=1;outlineConnect=0;" parent="13" vertex="1">
                    <mxGeometry width="20" height="14" relative="1" as="geometry">
                        <mxPoint x="26" y="-28" as="offset"/>
                    </mxGeometry>
                </mxCell>
                <mxCell id="17" value="告知用户错取了别人的快递" style="edgeLabel;html=1;align=center;verticalAlign=middle;resizable=0;points=[];" parent="13" vertex="1" connectable="0">
                    <mxGeometry x="-0.215" y="4" relative="1" as="geometry">
                        <mxPoint x="-67" y="43" as="offset"/>
                    </mxGeometry>
                </mxCell>
                <mxCell id="15" value="" style="endArrow=classic;html=1;entryX=0.5;entryY=0;entryDx=0;entryDy=0;entryPerimeter=0;" parent="1" source="4" target="2" edge="1">
                    <mxGeometry relative="1" as="geometry">
                        <mxPoint x="550" y="950" as="sourcePoint"/>
                        <mxPoint x="650" y="950" as="targetPoint"/>
                    </mxGeometry>
                </mxCell>
                <mxCell id="16" value="" style="shape=message;html=1;outlineConnect=0;" parent="15" vertex="1">
                    <mxGeometry width="20" height="14" relative="1" as="geometry">
                        <mxPoint x="31" y="13" as="offset"/>
                    </mxGeometry>
                </mxCell>
                <mxCell id="19" value="告知用户快递被别人取错了" style="edgeLabel;html=1;align=center;verticalAlign=middle;resizable=0;points=[];" parent="15" vertex="1" connectable="0">
                    <mxGeometry x="0.4361" y="-2" relative="1" as="geometry">
                        <mxPoint x="46" y="14" as="offset"/>
                    </mxGeometry>
                </mxCell>
                <mxCell id="20" value="" style="endArrow=classic;html=1;entryX=0.5;entryY=1;entryDx=0;entryDy=0;entryPerimeter=0;exitX=0.5;exitY=0;exitDx=0;exitDy=0;exitPerimeter=0;" parent="1" source="5" target="2" edge="1">
                    <mxGeometry width="50" height="50" relative="1" as="geometry">
                        <mxPoint x="320" y="980" as="sourcePoint"/>
                        <mxPoint x="370" y="930" as="targetPoint"/>
                    </mxGeometry>
                </mxCell>
                <mxCell id="21" value="归还快递" style="edgeLabel;html=1;align=center;verticalAlign=middle;resizable=0;points=[];" parent="20" vertex="1" connectable="0">
                    <mxGeometry x="-0.1284" y="-1" relative="1" as="geometry">
                        <mxPoint as="offset"/>
                    </mxGeometry>
                </mxCell>
            </root>
        </mxGraphModel>
    </diagram>
</mxfile>